<svg xmlns="http://www.w3.org/2000/svg" viewBox="0 0 119.66 40"><defs><style>.cls-1{fill:#a6a6a6;}.cls-2{fill:#fff;}</style></defs><title>Ресурс 2</title><g id="Слой_2" data-name="Слой 2"><g id="livetype"><path class="cls-1" d="M110.13,0H7.52a13.39,13.39,0,0,0-2,.18,6.64,6.64,0,0,0-1.9.63A6.07,6.07,0,0,0,2,2,6.07,6.07,0,0,0,.82,3.62a6.74,6.74,0,0,0-.63,1.9,12.18,12.18,0,0,0-.17,2c0,.31,0,.62,0,.92V31.56c0,.31,0,.61,0,.92a12.18,12.18,0,0,0,.17,2,6.7,6.7,0,0,0,.63,1.91A6,6,0,0,0,2,38a6.07,6.07,0,0,0,1.62,1.18,6.64,6.64,0,0,0,1.9.63,13.39,13.39,0,0,0,2,.18H112.14a13.39,13.39,0,0,0,2-.18,6.8,6.8,0,0,0,1.91-.63A6.24,6.24,0,0,0,117.67,38a6.31,6.31,0,0,0,1.8-3.52,13.39,13.39,0,0,0,.18-2c0-.31,0-.61,0-.92V8.44c0-.3,0-.61,0-.92a13.39,13.39,0,0,0-.18-2,6.72,6.72,0,0,0-.62-1.9,6.53,6.53,0,0,0-2.8-2.8,6.8,6.8,0,0,0-1.91-.63,13.39,13.39,0,0,0-2-.18h-2Z"/><path d="M8.44,39.13l-.9,0A11.7,11.7,0,0,1,5.67,39,5.79,5.79,0,0,1,4,38.4a5.5,5.5,0,0,1-1.39-1,5.19,5.19,0,0,1-1-1.4,5.69,5.69,0,0,1-.55-1.66,13,13,0,0,1-.16-1.87c0-.21,0-.91,0-.91V8.44s0-.69,0-.89a13,13,0,0,1,.16-1.87A5.69,5.69,0,0,1,1.6,4a5.38,5.38,0,0,1,1-1.4A5.59,5.59,0,0,1,4,1.6a5.69,5.69,0,0,1,1.66-.55A13,13,0,0,1,7.54.89H112.13a13,13,0,0,1,1.86.16,5.85,5.85,0,0,1,1.67.55A5.58,5.58,0,0,1,118.07,4a5.92,5.92,0,0,1,.54,1.65,13.14,13.14,0,0,1,.17,1.88v.89c0,.38,0,.74,0,1.1V30.46c0,.37,0,.72,0,1.08v.93a12.72,12.72,0,0,1-.17,1.85,5.73,5.73,0,0,1-.54,1.67,5.6,5.6,0,0,1-1,1.39,5.41,5.41,0,0,1-1.4,1A5.69,5.69,0,0,1,114,39a11.8,11.8,0,0,1-1.87.16l-.9,0H8.44Z"/><g id="_Group_3" data-name=" Group 3"><path id="_Path_" data-name=" Path " class="cls-2" d="M24.77,20.3a4.93,4.93,0,0,1,2.36-4.15,5.08,5.08,0,0,0-4-2.16c-1.67-.18-3.3,1-4.16,1s-2.19-1-3.61-1a5.31,5.31,0,0,0-4.47,2.73C9,20.11,10.4,25,12.25,27.74c.93,1.33,2,2.81,3.43,2.76s1.9-.89,3.58-.89,2.14.89,3.59.85,2.43-1.33,3.32-2.67a10.85,10.85,0,0,0,1.52-3.09A4.78,4.78,0,0,1,24.77,20.3Z"/><path id="_Path_2" data-name=" Path 2" class="cls-2" d="M22,12.21a4.86,4.86,0,0,0,1.11-3.49,5,5,0,0,0-3.21,1.66,4.63,4.63,0,0,0-1.14,3.36A4.11,4.11,0,0,0,22,12.21Z"/></g><path class="cls-2" d="M42.3,27.14H37.57L36.43,30.5h-2l4.48-12.42H41L45.48,30.5h-2Zm-4.24-1.55h3.75L40,20.14h-.05Z"/><path class="cls-2" d="M55.16,26c0,2.81-1.51,4.62-3.78,4.62A3.08,3.08,0,0,1,48.53,29h0v4.48H46.63v-12h1.8V23h0a3.21,3.21,0,0,1,2.89-1.6C53.65,21.35,55.16,23.16,55.16,26Zm-1.91,0c0-1.83-1-3-2.39-3s-2.38,1.23-2.38,3,1,3.05,2.38,3.05S53.25,27.82,53.25,26Z"/><path class="cls-2" d="M65.12,26c0,2.81-1.5,4.62-3.77,4.62A3.07,3.07,0,0,1,58.5,29h0v4.48H56.6v-12h1.8V23h0a3.19,3.19,0,0,1,2.88-1.6C63.61,21.35,65.12,23.16,65.12,26Zm-1.91,0c0-1.83-.94-3-2.39-3s-2.37,1.23-2.37,3S59.4,29,60.82,29s2.39-1.2,2.39-3.05Z"/><path class="cls-2" d="M71.71,27c.14,1.23,1.33,2,3,2s2.69-.81,2.69-1.92-.68-1.54-2.29-1.94l-1.61-.39c-2.28-.55-3.33-1.61-3.33-3.34,0-2.15,1.86-3.62,4.51-3.62s4.43,1.47,4.49,3.62H77.26c-.11-1.24-1.14-2-2.63-2s-2.52.75-2.52,1.86c0,.87.65,1.39,2.25,1.79l1.37.33c2.55.61,3.61,1.63,3.61,3.44,0,2.33-1.86,3.78-4.8,3.78-2.75,0-4.61-1.42-4.73-3.66Z"/><path class="cls-2" d="M83.35,19.3v2.14h1.72v1.47H83.35v5c0,.77.34,1.13,1.1,1.13.2,0,.41,0,.61,0v1.46a5.12,5.12,0,0,1-1,.09c-1.84,0-2.55-.69-2.55-2.45V22.91H80.16V21.44h1.32V19.3Z"/><path class="cls-2" d="M86.07,26c0-2.85,1.67-4.64,4.29-4.64s4.29,1.79,4.29,4.64S93,30.61,90.36,30.61,86.07,28.83,86.07,26Zm6.69,0c0-1.95-.9-3.11-2.4-3.11S88,24,88,26s.89,3.11,2.4,3.11,2.4-1.15,2.4-3.11Z"/><path class="cls-2" d="M96.19,21.44H98V23h0a2.16,2.16,0,0,1,2.18-1.63,2.79,2.79,0,0,1,.64.07v1.74A2.41,2.41,0,0,0,100,23a1.88,1.88,0,0,0-2,1.8c0,.09,0,.19,0,.29V30.5H96.19Z"/><path class="cls-2" d="M109.38,27.84c-.25,1.64-1.85,2.77-3.89,2.77-2.64,0-4.27-1.77-4.27-4.6s1.64-4.68,4.19-4.68,4.08,1.72,4.08,4.47v.63h-6.4v.12a2.36,2.36,0,0,0,2.14,2.55h.3a2.05,2.05,0,0,0,2.09-1.27Zm-6.28-2.71h4.53a2.17,2.17,0,0,0-2-2.29h-.17a2.29,2.29,0,0,0-2.31,2.28Z"/><path class="cls-2" d="M39.45,11.44a2.94,2.94,0,0,1-3,3.12H34.24V8.32h2.21A2.94,2.94,0,0,1,39.45,11.44Zm-1.13,0a1.88,1.88,0,0,0-1.9-2.08H35.34v4.16h1.08A1.88,1.88,0,0,0,38.32,11.44Z"/><path class="cls-2" d="M40.22,12.27a2.35,2.35,0,1,1,2.35,2.38A2.32,2.32,0,0,1,40.22,12.27Zm3.62,0a1.28,1.28,0,1,0-2.55,0,1.28,1.28,0,1,0,2.55,0Z"/><path class="cls-2" d="M50.94,14.56H49.88l-1.05-3.09-1,3.09H46.7L45.14,10H46.3l1,3.26h0L48.37,10h.93l1.1,3.26h0L51.32,10h1.13Z"/><path class="cls-2" d="M54.15,10v.57h0a1.5,1.5,0,0,1,1.28-.65c.83,0,1.58.54,1.58,1.86v2.82H56v-2.7c0-.69-.31-1-.79-1A1,1,0,0,0,54.15,12v2.6h-1V10Z"/><path class="cls-2" d="M59.18,8.14v6.42h-1V8.14Z"/><path class="cls-2" d="M60,12.27a2.35,2.35,0,1,1,2.35,2.38A2.33,2.33,0,0,1,60,12.27Zm3.63,0a1.28,1.28,0,1,0-2.55,0,1.28,1.28,0,1,0,2.55,0Z"/><path class="cls-2" d="M69.44,14.56h-1c0-.17,0-.44,0-.59h0a1.77,1.77,0,0,1-1.46.68,1.44,1.44,0,0,1-1.59-1.43c0-.69.44-1.34,1.67-1.39.55,0,1.36,0,1.36,0v-.24a.86.86,0,0,0-1-.83.85.85,0,0,0-.91.69H65.41c0-1,.86-1.54,2-1.54a1.81,1.81,0,0,1,2,1.8v1.39C69.4,13.9,69.41,14.28,69.44,14.56Zm-2.14-2c-.65,0-.89.27-.89.61s.31.59.75.59a1.1,1.1,0,0,0,1.2-1.07v-.18Z"/><path class="cls-2" d="M74.89,14.56h-1V14h0a2,2,0,0,1-1.44.61,2.19,2.19,0,0,1-2.14-2.39,2.19,2.19,0,0,1,2.14-2.38,2,2,0,0,1,1.44.61h0V8.14h1Zm-3.56-2.3a1.27,1.27,0,1,0,2.53,0,1.27,1.27,0,1,0-2.53,0Z"/><path class="cls-2" d="M77.81,12.27a2.35,2.35,0,1,1,2.35,2.38A2.32,2.32,0,0,1,77.81,12.27Zm3.62,0a1.28,1.28,0,1,0-2.55,0,1.28,1.28,0,1,0,2.55,0Z"/><path class="cls-2" d="M84.45,10v.57h0a1.53,1.53,0,0,1,1.29-.65c.83,0,1.58.54,1.58,1.86v2.82h-1v-2.7c0-.69-.31-1-.79-1a1,1,0,0,0-1,1.14v2.6h-1V10Z"/><path class="cls-2" d="M92,10.9V13c0,.62.38.72.68.72a1.11,1.11,0,0,0,.48-.11v.93a1.69,1.69,0,0,1-.59.12A1.49,1.49,0,0,1,91,12.93v-2H90V10h1V8.78l1-.31V10h1.16v.94Z"/><path class="cls-2" d="M97.92,11.74v2.82h-1v-2.7c0-.69-.31-1-.79-1A1,1,0,0,0,95,12v2.6H94V8.14h1v2.39h0a1.53,1.53,0,0,1,1.29-.65C97.17,9.88,97.92,10.42,97.92,11.74Z"/><path class="cls-2" d="M102.2,13.09l1.08.15a2.09,2.09,0,0,1-2.11,1.41,2.25,2.25,0,0,1-2.31-2.39,2.23,2.23,0,0,1,2.23-2.38c1.21,0,2.3.87,2.3,2.72H100a1.17,1.17,0,0,0,1.19,1.13A1.05,1.05,0,0,0,102.2,13.09ZM100,11.8h2.25a1.13,1.13,0,0,0-2.25,0Z"/></g></g></svg>