<svg xmlns="http://www.w3.org/2000/svg" xmlns:xlink="http://www.w3.org/1999/xlink" viewBox="0 0 119.66 40"><defs><style>.cls-1{fill:#a6a6a6;}.cls-2,.cls-7{fill:#fff;}.cls-3,.cls-4,.cls-5,.cls-6,.cls-7{fill-rule:evenodd;}.cls-3{fill:url(#Безымянный_градиент_5);}.cls-4{fill:url(#Безымянный_градиент_2);}.cls-5{fill:url(#Безымянный_градиент_3);}.cls-6{fill:url(#Безымянный_градиент_4);}</style><linearGradient id="Безымянный_градиент_5" x1="2650.75" y1="-1006.83" x2="2646.8" y2="-1004.78" gradientTransform="translate(-9459.33 6984.96) scale(3.58 6.93)" gradientUnits="userSpaceOnUse"><stop offset="0" stop-color="#00a0ff"/><stop offset="0.01" stop-color="#00a1ff"/><stop offset="0.26" stop-color="#00beff"/><stop offset="0.51" stop-color="#00d2ff"/><stop offset="0.76" stop-color="#00dfff"/><stop offset="1" stop-color="#00e3ff"/></linearGradient><linearGradient id="Безымянный_градиент_2" x1="2600.27" y1="-920.01" x2="2593" y2="-920.01" gradientTransform="translate(-7275.47 2195.7) scale(2.81 2.37)" gradientUnits="userSpaceOnUse"><stop offset="0" stop-color="#ffe000"/><stop offset="0.41" stop-color="#ffbd00"/><stop offset="0.78" stop-color="orange"/><stop offset="1" stop-color="#ff9c00"/></linearGradient><linearGradient id="Безымянный_градиент_3" x1="2694.85" y1="-963.43" x2="2690.69" y2="-958.03" gradientTransform="translate(-12412.86 3448.03) scale(4.61 3.56)" gradientUnits="userSpaceOnUse"><stop offset="0" stop-color="#ff3a44"/><stop offset="1" stop-color="#c31162"/></linearGradient><linearGradient id="Безымянный_градиент_4" x1="2691.65" y1="-967.63" x2="2693.51" y2="-965.22" gradientTransform="translate(-12412.86 3442.53) scale(4.61 3.56)" gradientUnits="userSpaceOnUse"><stop offset="0" stop-color="#32a071"/><stop offset="0.07" stop-color="#2da771"/><stop offset="0.48" stop-color="#15cf74"/><stop offset="0.8" stop-color="#06e775"/><stop offset="1" stop-color="#00f076"/></linearGradient></defs><title>Ресурс 1</title><g id="Слой_2" data-name="Слой 2"><g id="livetype"><path class="cls-1" d="M110.13,0H7.52a13.39,13.39,0,0,0-2,.18,6.64,6.64,0,0,0-1.9.63A6.07,6.07,0,0,0,2,2,6.07,6.07,0,0,0,.82,3.62a6.74,6.74,0,0,0-.63,1.9,12.18,12.18,0,0,0-.17,2c0,.31,0,.62,0,.92V31.56c0,.31,0,.61,0,.92a12.18,12.18,0,0,0,.17,2,6.7,6.7,0,0,0,.63,1.91A6,6,0,0,0,2,38a6.07,6.07,0,0,0,1.62,1.18,6.64,6.64,0,0,0,1.9.63,13.39,13.39,0,0,0,2,.18H112.14a13.39,13.39,0,0,0,2-.18,6.8,6.8,0,0,0,1.91-.63A6.24,6.24,0,0,0,117.67,38a6.31,6.31,0,0,0,1.8-3.52,13.39,13.39,0,0,0,.18-2c0-.31,0-.61,0-.92V8.44c0-.3,0-.61,0-.92a13.39,13.39,0,0,0-.18-2,6.72,6.72,0,0,0-.62-1.9,6.53,6.53,0,0,0-2.8-2.8,6.8,6.8,0,0,0-1.91-.63,13.39,13.39,0,0,0-2-.18h-2Z"/><path d="M8.44,39.13l-.9,0A11.7,11.7,0,0,1,5.67,39,5.79,5.79,0,0,1,4,38.4a5.5,5.5,0,0,1-1.39-1,5.19,5.19,0,0,1-1-1.4,5.69,5.69,0,0,1-.55-1.66,13,13,0,0,1-.16-1.87c0-.21,0-.91,0-.91V8.44s0-.69,0-.89a13,13,0,0,1,.16-1.87A5.69,5.69,0,0,1,1.6,4a5.38,5.38,0,0,1,1-1.4A5.59,5.59,0,0,1,4,1.6a5.69,5.69,0,0,1,1.66-.55A13,13,0,0,1,7.54.89H112.13a13,13,0,0,1,1.86.16,5.85,5.85,0,0,1,1.67.55A5.58,5.58,0,0,1,118.07,4a5.92,5.92,0,0,1,.54,1.65,13.14,13.14,0,0,1,.17,1.88v.89c0,.38,0,.74,0,1.1V30.46c0,.37,0,.72,0,1.08v.93a12.72,12.72,0,0,1-.17,1.85,5.73,5.73,0,0,1-.54,1.67,5.6,5.6,0,0,1-1,1.39,5.41,5.41,0,0,1-1.4,1A5.69,5.69,0,0,1,114,39a11.8,11.8,0,0,1-1.87.16l-.9,0H8.44Z"/><path class="cls-2" d="M40.23,10.86v.86a2.71,2.71,0,0,1-2.89,2.75,3.08,3.08,0,0,1-3.1-3.25A3.08,3.08,0,0,1,37.34,8a2.84,2.84,0,0,1,2.8,2L39,10.13a1.74,1.74,0,0,0-1.65-1.08,2,2,0,0,0-2,2.17,2,2,0,0,0,2,2.18,1.67,1.67,0,0,0,1.77-1.48H36.8V10.86Z"/><path class="cls-2" d="M44.35,12.89l1.09.15a2.12,2.12,0,0,1-2.14,1.43A2.28,2.28,0,0,1,41,12.06a2.27,2.27,0,0,1,2.26-2.42c1.23,0,2.33.88,2.33,2.76H42.11a1.18,1.18,0,0,0,1.2,1.14A1.07,1.07,0,0,0,44.35,12.89Zm-2.25-1.3h2.28a1.15,1.15,0,0,0-2.28,0Z"/><path class="cls-2" d="M47.86,10.68v2.08c0,.63.39.73.69.73a1.18,1.18,0,0,0,.49-.11v.94a1.55,1.55,0,0,1-.6.12,1.5,1.5,0,0,1-1.63-1.71V10.68h-1V9.73h1V8.53l1-.31V9.73H49v.95Z"/><path class="cls-2" d="M51.82,8.55a.7.7,0,1,1,.7.7A.69.69,0,0,1,51.82,8.55ZM53,9.73v4.66H52V9.73Z"/><path class="cls-2" d="M55.88,10.68v2.08c0,.63.39.73.7.73a1.14,1.14,0,0,0,.48-.11v.94a1.62,1.62,0,0,1-2.23-1.59V10.68h-1V9.73h1V8.53l1.05-.31V9.73h1.18v.95Z"/><path class="cls-2" d="M59.66,12.07A2.38,2.38,0,1,1,62,14.47,2.36,2.36,0,0,1,59.66,12.07Zm3.67,0a1.3,1.3,0,1,0-2.58,0,1.3,1.3,0,1,0,2.58,0Z"/><path class="cls-2" d="M66.38,9.73v.57h0a1.55,1.55,0,0,1,1.3-.66c.84,0,1.6.56,1.6,1.89v2.86H68.24V11.65c0-.7-.3-1.05-.8-1.05a1.07,1.07,0,0,0-1.06,1.15v2.64h-1V9.73Z"/><path class="cls-3" d="M10.39,8.78A1.75,1.75,0,0,0,10,10V28.62a1.64,1.64,0,0,0,.39,1.18l.07.06L20.92,19.41v-.24L10.46,8.73Z"/><path class="cls-4" d="M24.39,22.9l-3.48-3.48v-.25l3.48-3.48.08.05,4.12,2.34a1.28,1.28,0,0,1,0,2.43l-4.12,2.35-.08,0Z"/><path class="cls-5" d="M24.47,22.86,20.91,19.3,10.39,29.81a1.4,1.4,0,0,0,1.76.06Z"/><path class="cls-6" d="M24.47,15.74l-12.32-7a1.37,1.37,0,0,0-1.76,0L20.91,19.3Z"/><path class="cls-7" d="M34.25,24.82a6,6,0,0,1,6-6,5.68,5.68,0,0,1,4.09,1.64l-1.15,1.15a4.15,4.15,0,0,0-2.94-1.16,4.34,4.34,0,0,0,0,8.68,4,4,0,0,0,3-1.2,3.31,3.31,0,0,0,.89-2.05H40.3V24.28h5.49a5.16,5.16,0,0,1,.09,1,5.4,5.4,0,0,1-1.41,3.82,5.47,5.47,0,0,1-4.17,1.67,6.06,6.06,0,0,1-6.06-6ZM50.32,23.1a3.85,3.85,0,1,0,3.86,3.84A3.79,3.79,0,0,0,50.32,23.1Zm0,6.18A2.34,2.34,0,1,1,52.49,27,2.22,2.22,0,0,1,50.32,29.28Zm8.42-6.18a3.85,3.85,0,1,0,3.86,3.84,3.79,3.79,0,0,0-3.86-3.84Zm0,6.18A2.34,2.34,0,1,1,60.91,27a2.22,2.22,0,0,1-2.17,2.33Zm10.33-6V24H69a2.64,2.64,0,0,0-2-.86,3.85,3.85,0,0,0,0,7.69,2.61,2.61,0,0,0,2-.87h.06v.55c0,1.47-.78,2.26-2,2.26a2.13,2.13,0,0,1-1.94-1.37L63.61,32A3.66,3.66,0,0,0,67,34.24c2,0,3.65-1.16,3.65-4V23.33Zm-1.93,6a2.34,2.34,0,0,1,0-4.66,2.16,2.16,0,0,1,2,2.34A2.15,2.15,0,0,1,67.14,29.28Zm4.7-10h1.69V30.56H71.84Zm6.32,10a2,2,0,0,1-1.86-1.17L81.44,26l-.18-.43A3.57,3.57,0,0,0,78,23.1,3.66,3.66,0,0,0,74.34,27a3.77,3.77,0,0,0,3.82,3.84,3.85,3.85,0,0,0,3.21-1.71l-1.32-.87a2.19,2.19,0,0,1-1.89,1.07ZM78,24.59a1.49,1.49,0,0,1,1.43.81L76,26.83a2.1,2.1,0,0,1,2-2.24Zm10.83-5.34h-4V30.56H86.5V26.28h2.36a3.52,3.52,0,1,0,0-7Zm0,5.45H86.5V20.83h2.4a1.94,1.94,0,1,1,0,3.87Zm6.28,5.86V19.25H93.49V30.56Zm7.58,0V26.2c0-2-1.5-3.12-3.44-3.12a3.15,3.15,0,0,0-3,1.73l1.49.62a1.61,1.61,0,0,1,1.54-.83,1.63,1.63,0,0,1,1.78,1.46v.12a3.68,3.68,0,0,0-1.76-.44c-1.62,0-3.26.89-3.26,2.54a2.61,2.61,0,0,0,2.81,2.49,2.39,2.39,0,0,0,2.15-1.1h.06v.87Zm-3.64-1.27c-.55,0-1.32-.27-1.32-.95,0-.88,1-1.21,1.79-1.21a3.09,3.09,0,0,1,1.54.37,2,2,0,0,1-2,1.79Zm9.57-5.94-1.94,4.89h0l-2-4.89h-1.82l3,6.84L104.16,34h1.76l4.64-10.65Z"/></g></g></svg>